# xmcd
#
# Track frame offsets:
#	150
#	17755
#	31995
#	55192
#	74232
#	96197
#	112830
#	132632
#	152350
#	170377
#
# Disc length: 2532 seconds
#
# Revision: 1
# Processed by: cddbd v1.4PL0 Copyright (c) Steve Scherf et al.
# Submitted via: audiograbber 1.81.03
#
DISCID=8109e20a
DTITLE=Christian Kjellvander - Songs from a two-room chapel
DYEAR=2002
DGENRE=Country
TTITLE0=Homeward rolling soldier
TTITLE1=Words in the wires
TTITLE2=Allelujah
TTITLE3=Broken wheels
TTITLE4=Log at 25
TTITLE5=Oh night
TTITLE6=Deliverance
TTITLE7=Polish daughter
TTITLE8=At the rapids
TTITLE9=Rid
EXTD=
EXTT0=
EXTT1=
EXTT2=
EXTT3=
EXTT4=
EXTT5=
EXTT6=
EXTT7=
EXTT8=
EXTT9=
PLAYORDER=
